<?xml version="1.0" ?><svg fill="teal" enable-background="new -117.038 52.403 302.525 461.568" id="Layer_1" version="1.1" viewBox="-117.038 52.403 302.525 461.568" xml:space="preserve" xmlns="http://www.w3.org/2000/svg" xmlns:xlink="http://www.w3.org/1999/xlink"><g id="Layer_1_1_"/><g><path d="M185.332,172.019c-0.049-2.439-0.099-4.879-0.127-7.319c-0.042-3.604-0.203-7.184-0.359-10.645   c-0.125-2.777-0.243-5.401-0.306-8.047c-0.063-2.678-0.018-5.382,0.03-8.245c0.057-3.393,0.115-6.9-0.015-10.479   c-0.133-3.657-0.39-7.286-0.639-10.795c-0.193-2.725-0.375-5.298-0.506-7.898c-0.202-4.046-0.493-8.104-0.774-12.028   c-0.159-2.219-0.318-4.439-0.462-6.661c-0.168-2.586-0.272-5.217-0.384-8.003c-0.143-3.592-0.291-7.306-0.586-10.978   c-0.227-2.816-1.634-5.405-3.873-7.127c-2.24-1.722-5.104-2.415-7.884-1.911c-4.152,0.755-8.904,1.107-14.952,1.107   c-0.821,0-1.648-0.005-2.48-0.01c-4.934-0.031-10.512-0.064-16.088,0.949c-4.011,0.729-7.178,3.82-8.004,7.813   c-0.608,2.943,0.145,5.942,1.942,8.221c-0.038,0.691-0.069,1.381-0.069,2.062c0,0.618,0.058,1.235,0.171,1.843   c0.983,5.24,1.491,9.797,1.554,13.93c0.019,1.216,0.034,2.485,0.038,3.787c-1.829-2.447-3.736-4.721-5.606-6.951l-1.323-1.583   c-3.09-3.709-7.288-8.528-12.382-12.906c-4.162-3.578-8.881-7.633-14.344-10.888c-4.88-2.908-9.969-4.853-14.891-6.734   l-3.291-1.271c-5.007-1.955-10.185-3.976-15.796-5.309c-6.451-1.533-12.861-2.24-18.361-2.782   c-6.745-0.666-12.809-0.89-18.534-0.686c-6.211,0.22-12.092,1.228-17.78,2.203l-0.609,0.104c-6.107,1.045-12.087,2.14-18.096,4.033   l-1.341,0.421c-5.294,1.661-10.77,3.378-16.166,5.942c-5.375,2.555-10.839,5.667-16.238,9.249   c-5.097,3.383-10.071,7.242-14.783,11.471c-4.435,3.978-8.733,8.457-12.779,13.316c-1.058,1.186-2.115,2.857-2.6,5.104   c-4.819,5.201-8.85,10.843-12.004,16.81c-2.145,4.056-3.85,8.211-5.5,12.229c-1.069,2.603-2.079,5.062-3.188,7.466   c-0.103,0.223-0.197,0.45-0.284,0.68c-0.81,2.159-1.658,4.3-2.504,6.437c-1.499,3.784-3.048,7.697-4.4,11.731   c-1.274,3.803-2.217,7.566-3.129,11.206c-0.658,2.628-1.28,5.11-2.001,7.522c-2.222,7.435-3.86,13.175-5.312,18.611   c-0.607,2.273-1.251,4.541-1.896,6.813c-1.087,3.828-2.21,7.787-3.184,11.843c-0.303,1.262-0.357,2.571-0.16,3.854   c0.875,5.683,1.311,11.163,1.772,16.966l0.105,1.318c0.579,7.237,1.599,14.311,2.422,19.665c0.047,0.305,0.108,0.607,0.183,0.906   c0.693,2.77,1.323,5.476,1.933,8.093c0.688,2.951,1.337,5.739,2.062,8.581l0.537,2.118c1.234,4.889,2.511,9.946,4.449,15.278   c0.131,0.36,0.283,0.712,0.454,1.055l11.385,22.796c0.142,0.283,0.297,0.56,0.465,0.828c0.548,0.877,1.09,1.754,1.629,2.626   c2.835,4.589,5.768,9.333,9.405,13.771c4.232,5.166,8.854,10.047,13.737,14.509c5.1,4.657,10.827,8.689,15.81,12.114l0.243,0.166   c4.613,3.156,9.383,6.421,14.503,9.049c4.899,2.517,10.151,4.763,16.053,6.867c5.782,2.063,11.673,3.512,16.673,4.655   c6.552,1.499,11.712,2.474,16.761,3.162c6.239,0.832,14.464,1.843,22.762,2.272c8.037,0.419,15.881-0.025,23.228-0.515   c0.146-0.01,0.293-0.022,0.438-0.039c6.026-0.669,12.04-2.098,19.497-4.631l0.624-0.211c5.776-1.96,11.749-3.986,17.633-7.239   c5.555-3.069,11.021-6.57,16.248-10.404c0.282-0.207,0.554-0.429,0.813-0.663c0.614-0.56,1.22-1.121,1.817-1.686   c-0.002,1.124,0.185,2.256,0.57,3.348c2.03,5.752,2.946,10.213,2.885,14.036c-0.061,3.753-1.125,7.959-2.252,12.412   c-0.24,0.949-0.48,1.898-0.714,2.85c-1.21,4.945-2.866,9.786-4.902,15.557c-2.499,5.555-5.277,10.104-8.486,13.895   c-3.335,3.941-7.524,7.868-12.808,12.006c-4.956,3.883-10.433,7.26-14.755,9.813c-0.372,0.136-1.073,0.338-1.563,0.479   c-1.458,0.42-3.273,0.943-5.094,1.854c-0.371,0.186-0.73,0.394-1.075,0.624c-1.451,0.968-3.108,1.508-6.343,2.329   c-5.397,0.63-10.937,1.042-16.911,1.262c-5.631,0.206-11.217-0.088-17.407-0.468c-1.027-0.063-2.055-0.121-3.083-0.18   c-4.967-0.283-9.658-0.55-14.168-1.325c-5.639-0.97-11.308-2.28-16.847-3.896c-5.243-1.529-11.343-3.45-16.834-6.098   c-4.619-2.226-9.397-5.397-14.201-9.425c-3.834-3.215-7.072-7.295-9.624-12.128c-2.235-4.23-4.33-8.868-4.531-14.121   c-0.066-2.971-1.251-5.738-3.355-7.818c-3.803-3.76-8.841-3.701-11.546-3.672l-0.499,0.004c-1.732,0-3.43,0.45-4.93,1.3   c-2.376-0.345-4.721-0.625-7.021-0.9c-1.034-0.124-2.066-0.247-3.093-0.376c-3.815-0.478-7.87-1.697-12.163-2.989l-0.989-0.297   c-0.932-0.279-1.9-0.422-2.874-0.422c-2.332,0-6.542,0.744-9.49,5.516c-1.629,1.779-2.624,4.15-2.624,6.753   c0,1.332,0.26,2.604,0.733,3.766c0.028,0.071,0.057,0.143,0.086,0.214c0.277,0.668,0.621,1.295,1.022,1.873   c0.155,5.116,1.056,9.86,2.059,14.303c1.146,5.075,2.885,11.744,6.181,18.319c2.776,5.538,6.175,10.559,9.705,15.641l0.147,0.213   c3.213,4.626,6.535,9.41,10.118,14.017c0.255,0.327,0.53,0.639,0.823,0.933c1.464,1.464,2.907,2.952,4.351,4.441   c1.515,1.563,3.03,3.125,4.566,4.661c0.164,0.164,0.334,0.322,0.509,0.475c4.381,3.811,9.449,7.517,15.495,11.331   c5.361,3.382,11.026,6.407,16.84,8.993c5.468,2.433,10.969,4.053,16.288,5.619l1.637,0.482c1.363,0.404,2.723,0.829,4.083,1.253   c4.463,1.393,9.079,2.832,14.069,3.698c5.126,0.891,10.129,1.195,14.968,1.49c1.217,0.074,2.434,0.148,3.625,0.23   c1.704,0.121,3.411,0.277,5.121,0.432c4.007,0.363,8.148,0.739,12.471,0.739c0.046,0,0.093,0,0.14,0   c6.121-0.013,12.31-0.489,17.766-0.909c4.764-0.365,9.354-1.116,13.792-1.843c1.279-0.209,2.559-0.419,3.838-0.618   c6.894-1.072,12.455-2.137,17.499-3.349c1.277-0.307,2.56-0.602,3.843-0.897c4.39-1.011,8.93-2.057,13.491-3.578   c0.098-0.032,0.196-0.066,0.293-0.103c7.102-2.615,13.252-6.359,19.2-9.98l0.563-0.343c6.161-3.748,12.533-7.624,18.205-13.159   c5.716-5.579,9.986-12.219,13.542-18.029c0.941-1.41,1.836-2.725,2.73-4.038c0.964-1.416,1.929-2.833,2.947-4.361   c0.384-0.575,0.707-1.189,0.964-1.832c1.333-3.33,2.232-6.54,3.103-9.645c0.576-2.058,1.121-4.001,1.743-5.783   c0.566-1.623,1.238-3.279,1.948-5.032c1.336-3.297,2.718-6.707,3.685-10.553c1.044-4.155,1.423-8.176,1.79-12.063   c0.148-1.577,0.289-3.069,0.471-4.542c1.151-7.573,1.187-14.878,1.068-21.031l-0.048-2.19c-0.121-5.285-0.236-10.28,0.772-14.786   c1.581-5.854,2.432-11.559,2.602-17.432l0.072-2.451c0.13-4.31,0.263-8.764,0.268-13.187c0.145-3.293,0.14-6.528,0.135-9.658   c-0.005-3.031-0.009-5.894,0.114-8.719c0.122-2.768,0.409-5.588,0.713-8.573c0.328-3.225,0.667-6.559,0.808-9.997   c0.139-3.428,0.095-6.781,0.051-10.023c-0.04-2.997-0.077-5.829,0.024-8.613c0.127-3.473,0.194-6.961,0.26-10.335   c0.054-2.766,0.107-5.532,0.193-8.295c0.084-2.692,0.196-5.382,0.309-8.072c0.144-3.448,0.292-7.012,0.38-10.56   c0.062-2.478,0.14-4.954,0.218-7.429c0.115-3.667,0.235-7.459,0.299-11.223c0.048-2.752,0.19-5.507,0.341-8.424   c0.172-3.32,0.35-6.753,0.38-10.237c0.045-5.14,0.097-11.908,0.09-18.685C185.482,179.569,185.406,175.731,185.332,172.019z    M165.396,201.901c-0.026,3.057-0.185,6.128-0.353,9.381c-0.153,2.957-0.312,6.015-0.365,9.112   c-0.062,3.622-0.179,7.34-0.292,10.936c-0.079,2.52-0.159,5.04-0.222,7.563c-0.084,3.38-0.229,6.859-0.368,10.224   c-0.115,2.759-0.23,5.519-0.316,8.282c-0.089,2.842-0.144,5.685-0.199,8.529c-0.063,3.29-0.13,6.692-0.25,9.994   c-0.12,3.281-0.077,6.498-0.036,9.609c0.042,3.114,0.081,6.056-0.037,8.943c-0.115,2.832-0.409,5.724-0.721,8.785   c-0.319,3.136-0.649,6.378-0.796,9.723c-0.144,3.279-0.139,6.505-0.134,9.625c0.005,3.107,0.01,6.042-0.124,8.94   c-0.007,0.153-0.011,0.307-0.011,0.46c0,4.198-0.126,8.383-0.259,12.814l-0.073,2.473c-0.125,4.341-0.767,8.579-1.962,12.958   c-0.034,0.127-0.066,0.255-0.097,0.384c-1.615,6.997-1.457,13.859-1.317,19.914l0.046,2.113c0.103,5.343,0.08,11.629-0.862,17.755   c-0.015,0.093-0.027,0.186-0.039,0.279c-0.228,1.817-0.393,3.577-0.554,5.279c-0.31,3.286-0.603,6.391-1.274,9.065   c-0.628,2.497-1.694,5.13-2.824,7.916c-0.77,1.901-1.566,3.867-2.295,5.953c-0.827,2.372-1.483,4.713-2.118,6.977   c-0.662,2.363-1.293,4.611-2.061,6.692c-0.76,1.131-1.493,2.209-2.228,3.287c-0.964,1.416-1.929,2.833-2.947,4.361   c-0.073,0.109-0.144,0.221-0.213,0.332c-3.079,5.04-6.431,10.296-10.55,14.317c-4.042,3.944-9.185,7.072-14.692,10.423   l-0.506,0.308c-5.318,3.238-10.344,6.298-15.567,8.243c-3.613,1.194-7.449,2.078-11.507,3.013c-1.343,0.31-2.684,0.618-4.023,0.939   c-4.567,1.098-9.472,2.033-15.902,3.034c-1.332,0.207-2.662,0.425-3.993,0.643c-4.208,0.688-8.183,1.339-12.095,1.639   c-5.359,0.413-10.901,0.84-16.272,0.851c-0.034,0-0.068,0-0.104,0c-3.415,0-6.936-0.319-10.662-0.657   c-1.839-0.167-3.674-0.333-5.529-0.465c-1.266-0.087-2.536-0.165-3.807-0.242c-4.49-0.273-8.731-0.532-12.763-1.232   c-3.704-0.644-7.508-1.83-11.535-3.086c-1.452-0.453-2.903-0.905-4.358-1.336l-1.667-0.492c-4.912-1.446-9.551-2.813-13.81-4.707   c-4.937-2.196-9.748-4.766-14.297-7.635c-5.12-3.231-9.192-6.188-12.783-9.284c-1.378-1.383-2.739-2.786-4.1-4.19   c-1.366-1.408-2.732-2.817-4.114-4.207c-3.121-4.049-6.163-8.429-9.108-12.669l-0.148-0.213c-3.22-4.636-6.063-8.829-8.252-13.195   c-1.816-3.623-3.22-7.868-4.551-13.762c-0.393-1.741-0.733-3.387-0.997-4.971c1.065,0.197,2.146,0.368,3.243,0.506   c1.063,0.133,2.131,0.261,3.202,0.389c3.93,0.471,7.643,0.915,11.231,1.632c1.37,5.095,3.453,9.481,5.344,13.06   c3.766,7.131,8.629,13.224,14.457,18.111c6.076,5.094,12.256,9.171,18.368,12.116c6.805,3.281,13.887,5.521,19.918,7.281   c6.264,1.826,12.675,3.309,19.058,4.406c5.63,0.968,11.116,1.279,16.421,1.582c0.998,0.057,1.996,0.113,2.996,0.175   c6.479,0.396,12.837,0.73,19.364,0.491c6.761-0.248,13.035-0.727,19.183-1.464c0.416-0.05,0.828-0.126,1.235-0.228   c4.362-1.091,8.329-2.21,12.358-4.707c0.39-0.133,1.007-0.311,1.45-0.438c1.458-0.42,3.273-0.943,5.094-1.854   c0.204-0.102,0.404-0.211,0.601-0.326c4.924-2.898,11.354-6.834,17.418-11.586c6.367-4.986,11.516-9.837,15.74-14.828   c4.521-5.341,8.333-11.57,11.654-19.045c0.106-0.239,0.203-0.483,0.29-0.73c1.798-5.088,4.034-11.421,5.606-17.844   c0.22-0.9,0.447-1.799,0.675-2.696c1.358-5.366,2.763-10.916,2.861-16.996c0.094-5.867-1.076-11.457-2.404-16.022   c3.498-5.635,5.683-11.857,6.383-18.26c0.618-5.672,0.068-11.331-0.672-16.58c0.252-0.507,0.498-1.019,0.737-1.538   c0.043-0.094,0.085-0.188,0.125-0.282c0.12-0.203,0.233-0.411,0.339-0.623c1.07-2.145,1.471-4.134,1.291-6.491   c-0.061-4.581-3.231-8.543-7.701-9.599c-2.367-0.561-4.773-0.226-6.825,0.816c-4.915,0.391-8.394,2.567-10.352,6.484   c-0.694,1.388-1.056,2.919-1.056,4.472c0,1.927,0.478,3.563,1.164,4.93c-1.818,2.505-3.809,4.894-5.784,7.178   c-4.099,4.737-8.577,9.745-13.583,14.342c-4.411,3.209-9.007,6.14-13.67,8.716c-4.323,2.391-9.209,4.048-14.381,5.803l-0.631,0.214   c-5.939,2.018-10.598,3.152-15.063,3.667c-6.68,0.443-13.765,0.838-20.631,0.482c-5.998-0.312-12.324-0.946-21.125-2.12   c-4.407-0.602-9.025-1.477-14.975-2.838c-4.654-1.064-9.621-2.286-14.413-3.996c-5.067-1.807-9.527-3.711-13.639-5.822   c-4-2.053-8.052-4.826-12.343-7.763l-0.227-0.155c-4.618-3.173-9.475-6.589-13.632-10.386c-4.175-3.814-8.13-7.992-11.755-12.417   c-2.794-3.41-5.256-7.394-7.862-11.61c-0.474-0.767-0.949-1.535-1.429-2.305l-10.909-21.842c-1.491-4.203-2.549-8.392-3.666-12.817   l-0.548-2.165c-0.673-2.641-1.3-5.331-1.964-8.178c-0.595-2.554-1.209-5.19-1.896-7.951c-1.12-7.322-1.775-12.658-2.184-17.768   l-0.104-1.31c-0.42-5.285-0.854-10.731-1.646-16.408c0.768-3.029,1.624-6.045,2.521-9.207c0.673-2.372,1.345-4.74,1.979-7.113   c1.399-5.24,2.988-10.806,5.151-18.046c0.85-2.842,1.556-5.662,2.239-8.389c0.856-3.418,1.666-6.646,2.692-9.71   c1.182-3.525,2.566-7.021,4.032-10.723c0.828-2.092,1.684-4.252,2.508-6.438c1.225-2.679,2.317-5.338,3.374-7.913   c1.536-3.742,2.987-7.276,4.679-10.477c2.708-5.124,6.328-9.967,10.758-14.398c1.251-1.251,2.619-3.181,3.127-5.938   c2.95-3.395,6.027-6.533,9.172-9.355c3.994-3.583,8.196-6.845,12.486-9.693c4.611-3.06,9.242-5.701,13.764-7.85   c4.132-1.964,8.715-3.401,13.566-4.923l1.363-0.428c4.813-1.516,10.06-2.471,15.461-3.396l0.613-0.105   c5.268-0.902,10.243-1.755,15.112-1.928c4.824-0.172,10.012,0.025,15.86,0.602c4.851,0.479,10.465,1.093,15.702,2.337   c4.258,1.012,8.576,2.697,13.147,4.481l3.422,1.323c4.319,1.65,8.398,3.209,11.795,5.233c3.977,2.369,7.651,5.528,11.543,8.873   c3.101,2.665,6.2,5.915,10.049,10.537l1.368,1.636c2.854,3.404,5.551,6.62,7.602,10.043c2.584,4.309,4.858,8.772,6.761,13.267   c0.502,1.186,1.228,2.263,2.138,3.173c2.348,2.347,4.979,3.141,6.394,3.567c0.281,0.085,0.631,0.19,0.726,0.238   c2.9,1.451,6.328,1.403,9.19-0.127c2.861-1.532,4.802-4.356,5.204-7.577c0.263-2.101,0.64-4.202,1.039-6.426   c0.534-2.974,1.087-6.049,1.393-9.321c0.556-5.957,0.521-11.808,0.446-16.826c-0.068-4.499-0.527-9.274-1.4-14.526   c0.586,0.002,1.178,0.006,1.773,0.009c3.513,0.022,6.875-0.008,9.919-0.167c0.11,2.748,0.224,5.585,0.404,8.379   c0.147,2.268,0.31,4.534,0.472,6.8c0.273,3.819,0.557,7.768,0.749,11.6c0.141,2.807,0.339,5.605,0.53,8.311   c0.248,3.494,0.482,6.794,0.603,10.106c0.11,3.049,0.059,6.144,0.004,9.42c-0.049,2.934-0.1,5.967-0.027,9.048   c0.067,2.863,0.196,5.717,0.32,8.477c0.155,3.449,0.303,6.707,0.341,9.978c0.028,2.496,0.079,4.991,0.129,7.486   c0.072,3.618,0.146,7.36,0.15,10.991C165.492,190.101,165.441,196.806,165.396,201.901z"/><path d="M130.476,193.532c-0.096-1.668-0.322-3.32-0.528-4.819c-0.183-1.333-0.39-2.843-0.39-3.661c0-0.611-0.056-1.22-0.167-1.821   c-0.289-1.56-0.539-3.146-0.805-4.825c-0.623-3.954-1.269-8.042-2.497-12.246c-1.514-5.179-3.537-10.613-6.186-16.615   c-2.439-5.525-4.909-10.911-8.297-16.072c-3.493-5.32-7.742-9.648-11.851-13.833l-0.102-0.104   c-3.771-3.844-8.19-7.385-14.333-11.482c-0.112-0.075-0.227-0.147-0.342-0.218c-0.028-0.032-0.056-0.063-0.085-0.094   c-0.947-1.042-2.533-2.787-5.204-4.122c-7.24-3.62-14.768-5.636-21.253-7.241c-8.613-2.133-15.967-2.886-23.151-2.373   c-0.064,0.005-0.128,0.01-0.191,0.016c-0.144,0.013-0.285,0.029-0.427,0.048c-5.182-0.18-10.19,0.277-14.871,0.81   c-4.967,0.565-10.755,1.315-16.585,3.069l-1.399,0.418c-4.249,1.269-9.037,2.698-13.722,4.949   c-1.594,0.601-3.376,1.705-4.849,3.716c-5.502,2.839-10.401,6.057-14.591,9.587c-5.019,4.229-9.601,9.099-13.62,14.473   c-3.523,4.711-5.845,9.702-8.09,14.529c-0.406,0.873-0.812,1.747-1.227,2.618c-0.544,1.146-1.109,2.287-1.676,3.43   c-2.197,4.436-4.468,9.021-5.922,14.317c-1.445,5.26-1.894,10.345-2.327,15.263c-0.104,1.177-0.207,2.351-0.325,3.518   c-0.475,3.014-1.146,5.93-1.856,9.013c-0.668,2.901-1.359,5.902-1.876,9.006c-0.569,3.412-0.928,6.798-1.275,10.072   c-0.3,2.837-0.611,5.771-1.062,8.698c-1.038,6.913-2.011,14.289-1.543,21.766c0.421,6.737,1.507,13.683,3.319,21.234   c1.262,5.256,3.158,10.13,4.993,14.844c0.63,1.619,1.264,3.245,1.869,4.888c0.075,0.204,0.157,0.406,0.246,0.605   c2.404,5.407,4.603,9.941,7.522,14.496c2.48,3.871,5.567,8.688,9.583,13.278c0.146,0.167,0.297,0.329,0.454,0.485   c5.45,5.451,11.193,9.979,16.608,14.149c7.217,5.559,13.391,9.179,20.005,11.73c6.13,2.452,11.4,4.323,17.166,5.48   c6.451,1.297,12.35,1.964,18.03,2.039c0.568,0.008,1.13,0.012,1.687,0.012c5.96,0,11.297-0.445,16.257-1.354   c6.892-0.881,13.417-2.376,19.399-4.446c5.726-1.98,11.51-4.812,18.205-8.911c5.99-3.668,11.396-7.766,16.066-12.179   c4.81-4.544,9.237-9.605,13.162-15.045c4.109-5.698,7.569-11.395,10.28-16.93c2.498-5.094,4.736-10.923,7.045-18.346   c1.813-5.832,3.232-12.062,4.337-19.046c0.959-6.065,1.04-11.969,1.118-17.68l0.025-1.751c0.106-6.971-0.228-13.325-1.02-19.422   C133.469,205.733,132.245,199.858,130.476,193.532z M115.206,232.354c-0.071,5.236-0.14,10.181-0.874,14.83   c-0.952,6.021-2.156,11.329-3.681,16.23c-2.022,6.504-3.844,11.278-5.906,15.484c-2.217,4.526-5.091,9.247-8.541,14.03   c-3.189,4.42-6.781,8.527-10.678,12.208c-3.666,3.464-7.965,6.715-12.775,9.661c-5.43,3.324-9.974,5.569-14.3,7.066   c-4.756,1.646-10.019,2.836-15.642,3.539c-0.201,0.025-0.402,0.057-0.603,0.095c-4.187,0.784-8.858,1.134-14.291,1.057   c-4.436-0.06-9.133-0.599-14.361-1.649c-4.296-0.862-8.597-2.408-13.733-4.464c-0.042-0.017-0.084-0.033-0.126-0.049   c-4.76-1.831-9.401-4.587-15.047-8.936c-4.811-3.705-9.882-7.696-14.427-12.205c-2.938-3.406-5.402-7.25-7.582-10.652   c-2.191-3.42-3.975-7.096-5.956-11.539c-0.612-1.651-1.248-3.286-1.882-4.914c-1.666-4.279-3.238-8.321-4.183-12.257   c-1.54-6.417-2.458-12.244-2.807-17.815c-0.346-5.527,0.447-11.455,1.355-17.513c0.516-3.355,0.852-6.527,1.177-9.594   c0.331-3.121,0.643-6.068,1.114-8.892c0.417-2.501,1.01-5.078,1.639-7.806c0.778-3.378,1.583-6.873,2.171-10.701   c0.025-0.163,0.046-0.327,0.063-0.492c0.14-1.349,0.26-2.708,0.38-4.07c0.372-4.219,0.723-8.204,1.69-11.723   c0.945-3.44,2.7-6.985,4.559-10.737c0.615-1.242,1.229-2.482,1.818-3.723c0.437-0.918,0.866-1.842,1.296-2.766   c1.899-4.082,3.692-7.937,5.973-10.987c3.107-4.155,6.637-7.909,10.49-11.156c3.355-2.827,7.438-5.432,12.142-7.747   c1.561-0.585,3.303-1.652,4.759-3.581c2.811-1.178,5.882-2.095,9.095-3.055l1.439-0.431c4.245-1.277,8.792-1.861,13.085-2.349   c5.023-0.573,9.2-0.899,13.266-0.626c1.021,0.068,2.028-0.021,2.994-0.253c4.561-0.141,9.483,0.477,15.311,1.92   c6.453,1.597,11.756,3.14,16.457,5.394c0.003,0.003,0.006,0.006,0.01,0.01c0.861,0.948,2.252,2.478,4.508,3.752   c4.744,3.187,8.079,5.848,10.774,8.596l0.104,0.106c3.593,3.66,6.986,7.117,9.404,10.8c2.548,3.881,4.632,8.446,6.719,13.171   c2.291,5.192,4.02,9.821,5.285,14.15c0.87,2.975,1.39,6.267,1.939,9.752c0.232,1.478,0.473,2.998,0.747,4.542   c0.073,1.852,0.326,3.702,0.555,5.364c0.183,1.333,0.39,2.843,0.39,3.661c0,0.937,0.132,1.868,0.391,2.768   c1.673,5.808,2.806,11.096,3.463,16.169c0.667,5.135,0.947,10.547,0.855,16.543L115.206,232.354z"/></g></svg>